# xmcd CD database file
#
# Track frame offsets:
#	150
#	20312
#	43550
#	64670
#	87255
#	107325
#	128412
#	149607
#	167245
#	188805
#	211042
#	228420
#
# Disc length: 3278 seconds
#
# Revision: 2
# Processed by: cddbd v1.5.2PL0 Copyright (c) Steve Scherf et al.
# Submitted via: CDex 1.70beta3
#
DISCID=960ccc0c
DTITLE=Stan Bush - In This Life
DYEAR=2007
DGENRE=Melodic Hard Rock
TTITLE0=I'll Never Fall
TTITLE1=I Got A Thing For You
TTITLE2=I Can't Cry
TTITLE3=This Moment
TTITLE4=Waiting For You
TTITLE5=The First Time
TTITLE6=Long, Long, Way
TTITLE7=Over You
TTITLE8=Take It All The Way
TTITLE9=In This Life
TTITLE10=Southern Rain
TTITLE11=The Other Side Of Love (Bonus Tracks)
EXTD=YEAR: 2007
EXTT0=
EXTT1=
EXTT2=
EXTT3=
EXTT4=
EXTT5=
EXTT6=
EXTT7=
EXTT8=
EXTT9=
EXTT10=
EXTT11=
PLAYORDER=
